<?xml version="1.0" standalone="no"?>
<!DOCTYPE svg PUBLIC "-//W3C//DTD SVG 20010904//EN"
 "http://www.w3.org/TR/2001/REC-SVG-20010904/DTD/svg10.dtd">
<svg version="1.0" xmlns="http://www.w3.org/2000/svg"
 width="512.000000pt" height="512.000000pt" viewBox="0 0 512.000000 512.000000"
 preserveAspectRatio="xMidYMid meet">
<metadata>
Created by potrace 1.14, written by Peter Selinger 2001-2017
</metadata>
<g transform="translate(0.000000,512.000000) scale(0.100000,-0.100000)"
fill="#000000" stroke="none">
<path d="M870 5113 c-299 -46 -540 -199 -709 -451 -55 -82 -96 -175 -129 -292
l-27 -95 -2 -1680 c-1 -1357 1 -1695 12 -1760 60 -364 319 -665 674 -785 57
-19 76 -23 176 -40 71 -12 3338 -11 3400 1 28 5 62 12 76 14 52 9 156 47 228
82 230 114 418 332 501 581 50 153 49 87 46 1902 -2 1827 1 1692 -50 1853 -48
149 -167 326 -292 432 -143 121 -276 186 -464 226 -80 17 -182 18 -1750 17
-916 -1 -1676 -3 -1690 -5z"/>
</g>
</svg>
